# xmcd
#
# Track frame offsets:
# 150
# 11524
# 24773
# 36829
# 50215
# 61104
# 73862
# 86254
# 97827
# 109827
# 122055
# 135671
#
# Disc length: 1985 seconds
#
#
# Revision: 0
# Processed by: cddbd v1.5.2PL0 Copyright (c) Steve Scherf et al.
# Submitted via: FreeRIP 2.96 
#
DISCID=9507bf0c
DTITLE=Zé Mulato and Cassiano - Louco Amor
DYEAR=1965
DGENRE=Country
TTITLE0=Procure o Litrão
TTITLE1=Louco Amor
TTITLE2=Eu Quero Viver Morrendo
TTITLE3=Olhos Negros
TTITLE4=Chuva de Mulher
TTITLE5=Proparo Esquesitono
TTITLE6=Chapéu Furado
TTITLE7=Transformação
TTITLE8=Fechado para balanço
TTITLE9=Atenda Meu Pedido
TTITLE10=Palco da Vida
TTITLE11=Àguia do Peito Cinzento
EXTD=
EXTT0=
EXTT1=
EXTT2=
EXTT3=
EXTT4=
EXTT5=
EXTT6=
EXTT7=
EXTT8=
EXTT9=
EXTT10=
EXTT11=
PLAYORDER=
